<svg width="261" height="76" viewBox="0 0 261 76" fill="none" xmlns="http://www.w3.org/2000/svg">
<rect width="261" height="76" fill="#E5E5E5"/>
<path d="M14.309 75.5L4.80902 56.5H253.191L243.691 75.5H14.309Z" fill="white" stroke="black"/>
<path d="M17.309 72.5L7.80902 53.5H256.191L246.691 72.5H17.309Z" fill="white" stroke="black"/>
<path d="M21.309 69.5L11.809 50.5H260.191L250.691 69.5H21.309Z" fill="white" stroke="black"/>
<path d="M16.309 65.5L6.80902 46.5H255.191L245.691 65.5H16.309Z" fill="white" stroke="black"/>
<path d="M17.309 62.5L7.80902 43.5H256.191L246.691 62.5H17.309Z" fill="white" stroke="black"/>
<path d="M10.309 59.5L0.809017 40.5H249.191L239.691 59.5H10.309Z" fill="white" stroke="black"/>
<path d="M14.309 55.5L4.80902 36.5H253.191L243.691 55.5H14.309Z" fill="white" stroke="black"/>
<path d="M16.309 52.5L6.80902 33.5H255.191L245.691 52.5H16.309Z" fill="white" stroke="black"/>
<path d="M11.309 49.5L1.80902 30.5H250.191L240.691 49.5H11.309Z" fill="white" stroke="black"/>
<path d="M14.309 45.5L4.80902 26.5H253.191L243.691 45.5H14.309Z" fill="white" stroke="black"/>
<path d="M17.309 42.5L7.80902 23.5H256.191L246.691 42.5H17.309Z" fill="white" stroke="black"/>
<path d="M21.309 39.5L11.809 20.5H260.191L250.691 39.5H21.309Z" fill="white" stroke="black"/>
<path d="M16.309 35.5L6.80902 16.5H255.191L245.691 35.5H16.309Z" fill="white" stroke="black"/>
<path d="M17.309 32.5L7.80902 13.5H256.191L246.691 32.5H17.309Z" fill="white" stroke="black"/>
<path d="M10.309 29.5L0.809017 10.5H249.191L239.691 29.5H10.309Z" fill="white" stroke="black"/>
<path d="M14.309 25.5L4.80902 6.5H253.191L243.691 25.5H14.309Z" fill="white" stroke="black"/>
<path d="M16.309 22.5L6.80902 3.5H255.191L245.691 22.5H16.309Z" fill="white" stroke="black"/>
<path d="M11.309 19.5L1.80902 0.5H250.191L240.691 19.5H11.309Z" fill="white" stroke="black"/>
</svg>
