<?xml version="1.0" encoding="utf-8"?>
<svg version="1.1" id="Lager_1" xmlns="http://www.w3.org/2000/svg" xmlns:xlink="http://www.w3.org/1999/xlink" x="0px" y="0px"
	 viewBox="0 0 100 39" style="enable-background:new 0 0 100 39;" xml:space="preserve">
<style type="text/css">
	.st0{fill:#FFFFFF;}
	.st1{fill:none;stroke:#000000;stroke-width:0.75;stroke-miterlimit:10;}
</style>
<g>
	<polygon class="st0" points="26,33.6 25.4,22.4 72.6,22.4 72,33.6 	"/>
	<path d="M72.2,22.8l-0.6,10.5H26.4l-0.6-10.5H72.2 M73,22H25l0.7,12h46.7L73,22L73,22z"/>
</g>
<g>
	<polygon class="st0" points="25,31.6 24.4,20.4 71.6,20.4 71,31.6 	"/>
	<path d="M71.2,20.8l-0.6,10.5H25.4l-0.6-10.5H71.2 M72,20H24l0.7,12h46.7L72,20L72,20z"/>
</g>
<g>
	<polygon class="st0" points="26,29.6 25.4,18.4 72.6,18.4 72,29.6 	"/>
	<path d="M72.2,18.8l-0.6,10.5H26.4l-0.6-10.5H72.2 M73,18H25l0.7,12h46.7L73,18L73,18z"/>
</g>
<g>
	<polygon class="st0" points="25,27.6 24.4,16.4 71.6,16.4 71,27.6 	"/>
	<path d="M71.2,16.8l-0.6,10.5H25.4l-0.6-10.5H71.2 M72,16H24l0.7,12h46.7L72,16L72,16z"/>
</g>
<g>
	<polygon class="st0" points="27,25.6 26.4,14.4 73.6,14.4 73,25.6 	"/>
	<path d="M73.2,14.8l-0.6,10.5H27.4l-0.6-10.5H73.2 M74,14H26l0.7,12h46.7L74,14L74,14z"/>
</g>
<g>
	<polygon class="st0" points="25,23.6 24.4,12.4 71.6,12.4 71,23.6 	"/>
	<path d="M71.2,12.8l-0.6,10.5H25.4l-0.6-10.5H71.2 M72,12H24l0.7,12h46.7L72,12L72,12z"/>
</g>
<g>
	<polygon class="st0" points="26,21.6 25.4,10.4 72.6,10.4 72,21.6 	"/>
	<path d="M72.2,10.8l-0.6,10.5H26.4l-0.6-10.5H72.2 M73,10H25l0.7,12h46.7L73,10L73,10z"/>
</g>
<g>
	<polygon class="st0" points="25,19.6 24.4,8.4 71.6,8.4 71,19.6 	"/>
	<path d="M71.2,8.8l-0.6,10.5H25.4L24.8,8.8H71.2 M72,8H24l0.7,12h46.7L72,8L72,8z"/>
</g>
<g>
	<g>
		<polygon class="st0" points="27,17.6 26.4,6.4 73.6,6.4 73,17.6 		"/>
		<path d="M73.2,6.8l-0.6,10.5H27.4L26.8,6.8H73.2 M74,6H26l0.7,12h46.7L74,6L74,6z"/>
	</g>
	<g>
		<line class="st1" x1="29.5" y1="9.5" x2="66.5" y2="9.5"/>
	</g>
	<line class="st1" x1="29.5" y1="11.5" x2="57.5" y2="11.5"/>
	<line class="st1" x1="29.5" y1="13.5" x2="46.5" y2="13.5"/>
</g>
</svg>
